<mxfile host="Electron" agent="Mozilla/5.0 (Windows NT 10.0; Win64; x64) AppleWebKit/537.36 (KHTML, like Gecko) draw.io/27.0.2 Chrome/134.0.6998.205 Electron/35.3.0 Safari/537.36" version="27.0.2">
  <diagram name="Page-1" id="Xh6mIx-H42esC5smNHf7">
    <mxGraphModel dx="976" dy="508" grid="1" gridSize="10" guides="1" tooltips="1" connect="1" arrows="1" fold="1" page="1" pageScale="1" pageWidth="827" pageHeight="1169" math="0" shadow="0">
      <root>
        <mxCell id="0" />
        <mxCell id="1" parent="0" />
        <mxCell id="1gXr5BshDvOgqr6_naTr-43" value="" style="rounded=0;whiteSpace=wrap;html=1;" vertex="1" parent="1">
          <mxGeometry x="270" y="110" width="620" height="850" as="geometry" />
        </mxCell>
        <mxCell id="1gXr5BshDvOgqr6_naTr-1" value="Organizator" style="shape=umlActor;verticalLabelPosition=bottom;verticalAlign=top;html=1;outlineConnect=0;" vertex="1" parent="1">
          <mxGeometry x="200" y="260" width="30" height="60" as="geometry" />
        </mxCell>
        <mxCell id="1gXr5BshDvOgqr6_naTr-2" value="Administrator" style="shape=umlActor;verticalLabelPosition=bottom;verticalAlign=top;html=1;outlineConnect=0;" vertex="1" parent="1">
          <mxGeometry x="200" y="590" width="30" height="60" as="geometry" />
        </mxCell>
        <mxCell id="1gXr5BshDvOgqr6_naTr-3" value="Uporabnik" style="shape=umlActor;verticalLabelPosition=bottom;verticalAlign=top;html=1;outlineConnect=0;" vertex="1" parent="1">
          <mxGeometry x="920" y="270" width="30" height="60" as="geometry" />
        </mxCell>
        <mxCell id="1gXr5BshDvOgqr6_naTr-5" value="Pregled dogodkov" style="ellipse;whiteSpace=wrap;html=1;" vertex="1" parent="1">
          <mxGeometry x="745" y="170" width="120" height="70" as="geometry" />
        </mxCell>
        <mxCell id="1gXr5BshDvOgqr6_naTr-6" value="Iskanje dogodkov" style="ellipse;whiteSpace=wrap;html=1;" vertex="1" parent="1">
          <mxGeometry x="650" y="240" width="120" height="70" as="geometry" />
        </mxCell>
        <mxCell id="1gXr5BshDvOgqr6_naTr-7" value="Dodajanje dogodkov" style="ellipse;whiteSpace=wrap;html=1;" vertex="1" parent="1">
          <mxGeometry x="320" y="160" width="120" height="70" as="geometry" />
        </mxCell>
        <mxCell id="1gXr5BshDvOgqr6_naTr-8" value="Urejanje svojih dogodkov" style="ellipse;whiteSpace=wrap;html=1;" vertex="1" parent="1">
          <mxGeometry x="350" y="250" width="120" height="70" as="geometry" />
        </mxCell>
        <mxCell id="1gXr5BshDvOgqr6_naTr-9" value="Brisanje vseh dogodkov" style="ellipse;whiteSpace=wrap;html=1;" vertex="1" parent="1">
          <mxGeometry x="293" y="470" width="120" height="70" as="geometry" />
        </mxCell>
        <mxCell id="1gXr5BshDvOgqr6_naTr-10" value="Registriran uporabnik" style="shape=umlActor;verticalLabelPosition=bottom;verticalAlign=top;html=1;outlineConnect=0;" vertex="1" parent="1">
          <mxGeometry x="920" y="680" width="30" height="60" as="geometry" />
        </mxCell>
        <mxCell id="1gXr5BshDvOgqr6_naTr-11" value="Komentiranje dogodkov" style="ellipse;whiteSpace=wrap;html=1;" vertex="1" parent="1">
          <mxGeometry x="630" y="580" width="120" height="70" as="geometry" />
        </mxCell>
        <mxCell id="1gXr5BshDvOgqr6_naTr-12" value="Ocenjevanje" style="ellipse;whiteSpace=wrap;html=1;" vertex="1" parent="1">
          <mxGeometry x="630" y="670" width="120" height="70" as="geometry" />
        </mxCell>
        <mxCell id="1gXr5BshDvOgqr6_naTr-13" value="Urejanje uporabnikov" style="ellipse;whiteSpace=wrap;html=1;" vertex="1" parent="1">
          <mxGeometry x="380" y="630" width="120" height="70" as="geometry" />
        </mxCell>
        <mxCell id="1gXr5BshDvOgqr6_naTr-14" value="Brisanje uporabnikov" style="ellipse;whiteSpace=wrap;html=1;" vertex="1" parent="1">
          <mxGeometry x="360" y="720" width="120" height="70" as="geometry" />
        </mxCell>
        <mxCell id="1gXr5BshDvOgqr6_naTr-15" value="Shranjevanje najljubših dogodkov" style="ellipse;whiteSpace=wrap;html=1;" vertex="1" parent="1">
          <mxGeometry x="630" y="770" width="120" height="70" as="geometry" />
        </mxCell>
        <mxCell id="1gXr5BshDvOgqr6_naTr-16" value="Shranjevanje najljubših organizatorjev" style="ellipse;whiteSpace=wrap;html=1;" vertex="1" parent="1">
          <mxGeometry x="720" y="860" width="120" height="70" as="geometry" />
        </mxCell>
        <mxCell id="1gXr5BshDvOgqr6_naTr-17" value="Prijava na dogodek" style="ellipse;whiteSpace=wrap;html=1;" vertex="1" parent="1">
          <mxGeometry x="750" y="515" width="120" height="70" as="geometry" />
        </mxCell>
        <mxCell id="1gXr5BshDvOgqr6_naTr-20" value="Promoviranje dogodkov" style="ellipse;whiteSpace=wrap;html=1;" vertex="1" parent="1">
          <mxGeometry x="293" y="790" width="120" height="70" as="geometry" />
        </mxCell>
        <mxCell id="1gXr5BshDvOgqr6_naTr-21" value="Brisanje svojih dogodkov" style="ellipse;whiteSpace=wrap;html=1;" vertex="1" parent="1">
          <mxGeometry x="330" y="340" width="120" height="70" as="geometry" />
        </mxCell>
        <mxCell id="1gXr5BshDvOgqr6_naTr-22" value="" style="endArrow=none;html=1;rounded=0;exitX=0.5;exitY=0.5;exitDx=0;exitDy=0;exitPerimeter=0;entryX=0;entryY=1;entryDx=0;entryDy=0;" edge="1" parent="1" source="1gXr5BshDvOgqr6_naTr-1" target="1gXr5BshDvOgqr6_naTr-7">
          <mxGeometry width="50" height="50" relative="1" as="geometry">
            <mxPoint x="250" y="290" as="sourcePoint" />
            <mxPoint x="300" y="240" as="targetPoint" />
          </mxGeometry>
        </mxCell>
        <mxCell id="1gXr5BshDvOgqr6_naTr-23" value="" style="endArrow=none;html=1;rounded=0;exitX=0.5;exitY=0.5;exitDx=0;exitDy=0;exitPerimeter=0;entryX=0;entryY=0.5;entryDx=0;entryDy=0;" edge="1" parent="1" source="1gXr5BshDvOgqr6_naTr-1" target="1gXr5BshDvOgqr6_naTr-8">
          <mxGeometry width="50" height="50" relative="1" as="geometry">
            <mxPoint x="300" y="300" as="sourcePoint" />
            <mxPoint x="350" y="250" as="targetPoint" />
          </mxGeometry>
        </mxCell>
        <mxCell id="1gXr5BshDvOgqr6_naTr-24" value="" style="endArrow=none;html=1;rounded=0;exitX=0.5;exitY=0.5;exitDx=0;exitDy=0;exitPerimeter=0;entryX=0;entryY=0;entryDx=0;entryDy=0;" edge="1" parent="1" source="1gXr5BshDvOgqr6_naTr-1" target="1gXr5BshDvOgqr6_naTr-21">
          <mxGeometry width="50" height="50" relative="1" as="geometry">
            <mxPoint x="300" y="350" as="sourcePoint" />
            <mxPoint x="350" y="300" as="targetPoint" />
          </mxGeometry>
        </mxCell>
        <mxCell id="1gXr5BshDvOgqr6_naTr-25" value="" style="endArrow=none;html=1;rounded=0;entryX=0.5;entryY=0.5;entryDx=0;entryDy=0;entryPerimeter=0;exitX=1;exitY=1;exitDx=0;exitDy=0;" edge="1" parent="1" source="1gXr5BshDvOgqr6_naTr-5" target="1gXr5BshDvOgqr6_naTr-3">
          <mxGeometry width="50" height="50" relative="1" as="geometry">
            <mxPoint x="810" y="330" as="sourcePoint" />
            <mxPoint x="860" y="280" as="targetPoint" />
          </mxGeometry>
        </mxCell>
        <mxCell id="1gXr5BshDvOgqr6_naTr-26" value="" style="endArrow=none;html=1;rounded=0;exitX=1;exitY=0.5;exitDx=0;exitDy=0;entryX=0.5;entryY=0.5;entryDx=0;entryDy=0;entryPerimeter=0;" edge="1" parent="1" source="1gXr5BshDvOgqr6_naTr-6" target="1gXr5BshDvOgqr6_naTr-3">
          <mxGeometry width="50" height="50" relative="1" as="geometry">
            <mxPoint x="780" y="290" as="sourcePoint" />
            <mxPoint x="830" y="240" as="targetPoint" />
          </mxGeometry>
        </mxCell>
        <mxCell id="1gXr5BshDvOgqr6_naTr-29" value="" style="endArrow=none;html=1;rounded=0;entryX=0.5;entryY=0.5;entryDx=0;entryDy=0;entryPerimeter=0;exitX=1;exitY=1;exitDx=0;exitDy=0;" edge="1" parent="1" source="1gXr5BshDvOgqr6_naTr-17" target="1gXr5BshDvOgqr6_naTr-10">
          <mxGeometry width="50" height="50" relative="1" as="geometry">
            <mxPoint x="840" y="660" as="sourcePoint" />
            <mxPoint x="890" y="610" as="targetPoint" />
          </mxGeometry>
        </mxCell>
        <mxCell id="1gXr5BshDvOgqr6_naTr-30" value="" style="endArrow=none;html=1;rounded=0;entryX=0.5;entryY=0.5;entryDx=0;entryDy=0;entryPerimeter=0;exitX=1;exitY=0.5;exitDx=0;exitDy=0;" edge="1" parent="1" source="1gXr5BshDvOgqr6_naTr-11" target="1gXr5BshDvOgqr6_naTr-10">
          <mxGeometry width="50" height="50" relative="1" as="geometry">
            <mxPoint x="790" y="670" as="sourcePoint" />
            <mxPoint x="840" y="620" as="targetPoint" />
          </mxGeometry>
        </mxCell>
        <mxCell id="1gXr5BshDvOgqr6_naTr-31" value="" style="endArrow=none;html=1;rounded=0;entryX=0.5;entryY=0.5;entryDx=0;entryDy=0;entryPerimeter=0;exitX=1;exitY=0.5;exitDx=0;exitDy=0;" edge="1" parent="1" source="1gXr5BshDvOgqr6_naTr-12" target="1gXr5BshDvOgqr6_naTr-10">
          <mxGeometry width="50" height="50" relative="1" as="geometry">
            <mxPoint x="800" y="740" as="sourcePoint" />
            <mxPoint x="850" y="690" as="targetPoint" />
          </mxGeometry>
        </mxCell>
        <mxCell id="1gXr5BshDvOgqr6_naTr-32" value="" style="endArrow=none;html=1;rounded=0;entryX=0.5;entryY=0.5;entryDx=0;entryDy=0;entryPerimeter=0;exitX=1;exitY=0.5;exitDx=0;exitDy=0;" edge="1" parent="1" source="1gXr5BshDvOgqr6_naTr-15" target="1gXr5BshDvOgqr6_naTr-10">
          <mxGeometry width="50" height="50" relative="1" as="geometry">
            <mxPoint x="800" y="790" as="sourcePoint" />
            <mxPoint x="850" y="740" as="targetPoint" />
          </mxGeometry>
        </mxCell>
        <mxCell id="1gXr5BshDvOgqr6_naTr-33" value="" style="endArrow=none;html=1;rounded=0;entryX=0.5;entryY=0.5;entryDx=0;entryDy=0;entryPerimeter=0;exitX=1;exitY=0;exitDx=0;exitDy=0;" edge="1" parent="1" source="1gXr5BshDvOgqr6_naTr-16" target="1gXr5BshDvOgqr6_naTr-10">
          <mxGeometry width="50" height="50" relative="1" as="geometry">
            <mxPoint x="900" y="850" as="sourcePoint" />
            <mxPoint x="950" y="800" as="targetPoint" />
          </mxGeometry>
        </mxCell>
        <mxCell id="1gXr5BshDvOgqr6_naTr-34" value="" style="endArrow=none;html=1;rounded=0;entryX=0;entryY=1;entryDx=0;entryDy=0;exitX=0.5;exitY=0.5;exitDx=0;exitDy=0;exitPerimeter=0;" edge="1" parent="1" source="1gXr5BshDvOgqr6_naTr-2" target="1gXr5BshDvOgqr6_naTr-9">
          <mxGeometry width="50" height="50" relative="1" as="geometry">
            <mxPoint x="250" y="620" as="sourcePoint" />
            <mxPoint x="300" y="570" as="targetPoint" />
          </mxGeometry>
        </mxCell>
        <mxCell id="1gXr5BshDvOgqr6_naTr-35" value="" style="endArrow=none;html=1;rounded=0;exitX=0.5;exitY=0.5;exitDx=0;exitDy=0;exitPerimeter=0;entryX=0;entryY=0.5;entryDx=0;entryDy=0;" edge="1" parent="1" source="1gXr5BshDvOgqr6_naTr-2" target="1gXr5BshDvOgqr6_naTr-13">
          <mxGeometry width="50" height="50" relative="1" as="geometry">
            <mxPoint x="320" y="640" as="sourcePoint" />
            <mxPoint x="370" y="590" as="targetPoint" />
          </mxGeometry>
        </mxCell>
        <mxCell id="1gXr5BshDvOgqr6_naTr-36" value="" style="endArrow=none;html=1;rounded=0;exitX=0.5;exitY=0.5;exitDx=0;exitDy=0;exitPerimeter=0;entryX=0;entryY=0;entryDx=0;entryDy=0;" edge="1" parent="1" source="1gXr5BshDvOgqr6_naTr-2" target="1gXr5BshDvOgqr6_naTr-14">
          <mxGeometry width="50" height="50" relative="1" as="geometry">
            <mxPoint x="330" y="710" as="sourcePoint" />
            <mxPoint x="380" y="660" as="targetPoint" />
          </mxGeometry>
        </mxCell>
        <mxCell id="1gXr5BshDvOgqr6_naTr-37" value="" style="endArrow=none;html=1;rounded=0;exitX=0.5;exitY=0.5;exitDx=0;exitDy=0;exitPerimeter=0;entryX=0;entryY=0;entryDx=0;entryDy=0;" edge="1" parent="1" source="1gXr5BshDvOgqr6_naTr-2" target="1gXr5BshDvOgqr6_naTr-20">
          <mxGeometry width="50" height="50" relative="1" as="geometry">
            <mxPoint x="340" y="740" as="sourcePoint" />
            <mxPoint x="390" y="690" as="targetPoint" />
          </mxGeometry>
        </mxCell>
        <mxCell id="1gXr5BshDvOgqr6_naTr-40" value="" style="endArrow=block;html=1;rounded=0;endFill=0;exitX=0.5;exitY=0;exitDx=0;exitDy=0;exitPerimeter=0;" edge="1" parent="1" source="1gXr5BshDvOgqr6_naTr-2">
          <mxGeometry width="50" height="50" relative="1" as="geometry">
            <mxPoint x="215.40999999999997" y="530" as="sourcePoint" />
            <mxPoint x="215" y="360" as="targetPoint" />
          </mxGeometry>
        </mxCell>
        <mxCell id="1gXr5BshDvOgqr6_naTr-41" value="" style="endArrow=block;html=1;rounded=0;endFill=0;exitX=0.5;exitY=0;exitDx=0;exitDy=0;exitPerimeter=0;" edge="1" parent="1" source="1gXr5BshDvOgqr6_naTr-10">
          <mxGeometry width="50" height="50" relative="1" as="geometry">
            <mxPoint x="934.41" y="660" as="sourcePoint" />
            <mxPoint x="935" y="360" as="targetPoint" />
          </mxGeometry>
        </mxCell>
        <mxCell id="1gXr5BshDvOgqr6_naTr-44" value="&lt;font style=&quot;font-size: 24px;&quot;&gt;Dogodki v bližini&lt;/font&gt;" style="text;html=1;align=center;verticalAlign=middle;whiteSpace=wrap;rounded=0;" vertex="1" parent="1">
          <mxGeometry x="460" y="130" width="240" height="30" as="geometry" />
        </mxCell>
        <mxCell id="1gXr5BshDvOgqr6_naTr-45" value="Urejanje vseh dogodkov" style="ellipse;whiteSpace=wrap;html=1;" vertex="1" parent="1">
          <mxGeometry x="380" y="540" width="120" height="70" as="geometry" />
        </mxCell>
        <mxCell id="1gXr5BshDvOgqr6_naTr-46" value="" style="endArrow=none;html=1;rounded=0;exitX=0.5;exitY=0.5;exitDx=0;exitDy=0;exitPerimeter=0;entryX=0;entryY=0.5;entryDx=0;entryDy=0;" edge="1" parent="1" source="1gXr5BshDvOgqr6_naTr-2" target="1gXr5BshDvOgqr6_naTr-45">
          <mxGeometry width="50" height="50" relative="1" as="geometry">
            <mxPoint x="220" y="620" as="sourcePoint" />
            <mxPoint x="350" y="560" as="targetPoint" />
          </mxGeometry>
        </mxCell>
        <mxCell id="1gXr5BshDvOgqr6_naTr-48" value="Filtriranje dogodkov" style="ellipse;whiteSpace=wrap;html=1;" vertex="1" parent="1">
          <mxGeometry x="570" y="370" width="120" height="70" as="geometry" />
        </mxCell>
        <mxCell id="1gXr5BshDvOgqr6_naTr-49" value="" style="endArrow=block;html=1;rounded=0;exitX=0.5;exitY=0;exitDx=0;exitDy=0;entryX=0;entryY=1;entryDx=0;entryDy=0;endFill=0;dashed=1;" edge="1" parent="1" source="1gXr5BshDvOgqr6_naTr-48" target="1gXr5BshDvOgqr6_naTr-6">
          <mxGeometry width="50" height="50" relative="1" as="geometry">
            <mxPoint x="660" y="362" as="sourcePoint" />
            <mxPoint x="668" y="310" as="targetPoint" />
          </mxGeometry>
        </mxCell>
        <mxCell id="1gXr5BshDvOgqr6_naTr-50" value="&lt;font style=&quot;font-size: 12px;&quot;&gt;&amp;lt;&amp;lt;extend&amp;gt;&amp;gt;&lt;/font&gt;" style="edgeLabel;html=1;align=center;verticalAlign=middle;resizable=0;points=[];" vertex="1" connectable="0" parent="1gXr5BshDvOgqr6_naTr-49">
          <mxGeometry x="-0.0316" relative="1" as="geometry">
            <mxPoint x="32" y="5" as="offset" />
          </mxGeometry>
        </mxCell>
      </root>
    </mxGraphModel>
  </diagram>
</mxfile>
